<?xml version="1.0" encoding="UTF-8"?>
<!DOCTYPE svg PUBLIC "-//W3C//DTD SVG 1.1//EN" "http://www.w3.org/Graphics/SVG/1.1/DTD/svg11.dtd">
<!-- Creator: CorelDRAW (Versión OEM) -->
<svg xmlns="http://www.w3.org/2000/svg" xml:space="preserve" width="12.4672mm" height="14.1356mm" version="1.1" style="shape-rendering:geometricPrecision; text-rendering:geometricPrecision; image-rendering:optimizeQuality; fill-rule:evenodd; clip-rule:evenodd"
viewBox="0 0 67.9 76.99"
 xmlns:xlink="http://www.w3.org/1999/xlink"
 xmlns:xodm="http://www.corel.com/coreldraw/odm/2003">
 <defs>
  <style type="text/css">
   <![CDATA[
    .str0 {stroke:#E2E2E2;stroke-width:0.42;stroke-miterlimit:22.9256}
    .fil0 {fill:#E2E2E2}
    .fil1 {fill:#E2E2E2;fill-rule:nonzero}
   ]]>
  </style>
 </defs>
 <g id="Capa_x0020_1">
  <metadata id="CorelCorpID_0Corel-Layer"/>
  <g id="_1949950737984">
   <path class="fil0" d="M24.67 10.18c0,-5.62 4.15,-10.18 9.28,-10.18 5.13,0 9.28,4.56 9.28,10.18 0,5.62 -4.15,10.18 -9.28,10.18 -5.13,0 -9.28,-4.56 -9.28,-10.18z"/>
   <path class="fil1" d="M21.21 38.2l-7.34 -2.68c-2.11,-0.77 -3.54,-2.94 -3.54,-5.38 0,-3.61 3.04,-6.3 6.25,-5.54l6.4 1.5c0.36,0.08 0.53,0.13 0.71,0.17 6.76,1.53 13.74,1.53 20.51,0 0.18,-0.04 0.35,-0.08 0.71,-0.17l6.4 -1.5c3.22,-0.76 6.25,1.93 6.25,5.54 0,2.44 -1.42,4.61 -3.54,5.38l-7.34 2.68c-0.89,0.32 -1.33,0.49 -1.66,0.71 -1.14,0.77 -1.75,2.2 -1.57,3.65 0.05,0.43 0.22,0.9 0.56,1.86l4.21 12c1.25,3.57 -1.15,7.41 -4.64,7.41 -1.78,0 -3.43,-1.05 -4.32,-2.75l-5.32 -10.2 -5.32 10.2c-0.89,1.7 -2.53,2.75 -4.32,2.75 -3.49,0 -5.89,-3.84 -4.64,-7.41l4.21 -12c0.34,-0.96 0.5,-1.44 0.56,-1.86 0.18,-1.45 -0.44,-2.88 -1.57,-3.65 -0.33,-0.23 -0.78,-0.39 -1.66,-0.71z"/>
   <path class="fil1 str0" d="M33.95 76.78c18.64,0 33.74,-7.46 33.74,-16.65 0,-6.37 -7.25,-11.91 -17.9,-14.71l3.16 9.01c2.53,7.21 -2.32,14.95 -9.36,14.95 -3.6,0 -6.92,-2.12 -8.71,-5.54l-0.92 -1.77 -0.92 1.77c-1.79,3.43 -5.11,5.54 -8.71,5.54 -7.04,0 -11.89,-7.75 -9.36,-14.95l3.16 -9.01c-10.65,2.8 -17.91,8.34 -17.91,14.71 0,9.2 15.11,16.65 33.74,16.65z"/>
  </g>
 </g>
</svg>
