<?xml version="1.0" encoding="UTF-8"?>
<!DOCTYPE svg PUBLIC "-//W3C//DTD SVG 1.1//EN" "http://www.w3.org/Graphics/SVG/1.1/DTD/svg11.dtd">
<!-- Creator: CorelDRAW (Versión OEM) -->
<svg xmlns="http://www.w3.org/2000/svg" xml:space="preserve" width="26.8128mm" height="24.0754mm" version="1.1" style="shape-rendering:geometricPrecision; text-rendering:geometricPrecision; image-rendering:optimizeQuality; fill-rule:evenodd; clip-rule:evenodd"
viewBox="0 0 282.03 253.23"
 xmlns:xlink="http://www.w3.org/1999/xlink"
 xmlns:xodm="http://www.corel.com/coreldraw/odm/2003">
 <defs>
  <style type="text/css">
   <![CDATA[
    .str0 {stroke:#24B388;stroke-width:2.1;stroke-miterlimit:22.9256}
    .fil1 {fill:none}
    .fil0 {fill:#293330}
    .fil2 {fill:#00E6A1;fill-rule:nonzero}
    .fil3 {fill:#E2E2E2;fill-rule:nonzero}
   ]]>
  </style>
 </defs>
 <g id="Capa_x0020_1">
  <metadata id="CorelCorpID_0Corel-Layer"/>
  <rect class="fil0 str0" x="17.44" y="5.4" width="263.53" height="246.79"/>
  <rect class="fil1 str0" x="1.05" y="1.05" width="263.53" height="246.79"/>
  <path id="secondary" class="fil2" d="M141.77 120.13c-1.76,0 -3.19,-1.41 -3.19,-3.14l0 -31.44c0,-1.74 1.43,-3.14 3.19,-3.14 1.76,0 3.2,1.41 3.2,3.14l0 31.44c0,1.74 -1.43,3.14 -3.2,3.14l0 0z"/>
  <ellipse id="primary" class="fil3" cx="141.77" cy="72.97" rx="15.97" ry="15.72"/>
  <g id="_2353134212448">
   <g>
    <path class="fil2" d="M238.66 34.77c-0.74,-3.51 -4.22,-5.76 -7.79,-5.03 -3.55,0.72 -5.85,4.14 -5.11,7.65 0.63,3 0.9,5.62 0.9,7.9 -0.02,4.52 -1.01,7.66 -2.72,10.39 -1.72,2.72 -4.35,5.14 -8.12,7.45 -1.62,1 -3.48,1.95 -5.48,2.89l0 -12.19c0,-3.16 -2.6,-5.72 -5.81,-5.72 -3.21,0 -5.8,2.56 -5.8,5.72l0 16.77c-4.91,1.71 -10.31,3.42 -16.09,5.25 -0.32,0.11 -0.6,0.23 -0.91,0.33l0 -10.03c0,-3.16 -2.6,-5.72 -5.81,-5.72 -3.21,0 -5.81,2.56 -5.81,5.72l0 15.26c-7.12,4.21 -11.9,9.28 -14.79,14.15 -1.56,2.6 -2.6,5.08 -3.31,7.32 -3.74,0 -7.5,0 -10.3,0 -2.81,0 -6.57,0 -10.3,0 -0.71,-2.23 -1.75,-4.72 -3.3,-7.32 -2.89,-4.87 -7.67,-9.94 -14.8,-14.15l0 -15.26c0,-3.16 -2.6,-5.72 -5.81,-5.72 -3.21,0 -5.81,2.56 -5.81,5.72l0 10.03c-0.31,-0.1 -0.59,-0.22 -0.91,-0.33 -5.78,-1.83 -11.18,-3.54 -16.09,-5.25l0 -16.77c0,-3.16 -2.6,-5.72 -5.81,-5.72 -3.21,0 -5.81,2.56 -5.81,5.72l0 12.19c-2,-0.94 -3.86,-1.89 -5.48,-2.89 -3.78,-2.31 -6.41,-4.73 -8.13,-7.45 -1.71,-2.73 -2.7,-5.87 -2.72,-10.39 0,-2.29 0.28,-4.9 0.9,-7.9 0.73,-3.51 -1.56,-6.93 -5.11,-7.65 -3.57,-0.72 -7.05,1.53 -7.78,5.03 -0.78,3.72 -1.17,7.21 -1.17,10.52 -0.02,6.52 1.61,12.39 4.71,17.24 2.31,3.64 5.34,6.66 8.77,9.2 5.17,3.82 11.24,6.62 17.92,9.18 6.68,2.54 14,4.8 21.73,7.27 11.94,3.86 17.24,9.37 20.05,13.96 0.16,0.26 0.27,0.51 0.41,0.76 -2.11,0.22 -5.94,1.43 -8.94,3.79 -0.41,-0.17 -0.83,-0.35 -1.28,-0.5 -9.48,-3.1 -22.39,-6.81 -27.54,-7.99 -5.97,-1.37 -11.53,2.32 -7.22,11.11 4.16,8.49 9.47,19.1 22.12,22.21 2.02,0.5 3.96,0.74 5.83,0.85 -1.23,6.26 -2.28,11.8 -2.49,13.06 -1.03,6.04 2.42,10.96 4.68,15.09 1.49,2.73 11.64,27.64 13.15,30.92 1.06,2.3 3.63,7.12 3.63,7.12 0,0.65 0,1.18 0,1.61 0,0.17 0,0.33 0,0.47 0,2.38 1.21,9.53 8.47,9.53 7.26,0 14.12,0 14.12,0 0,0 6.86,0 14.12,0 7.26,0 8.47,-7.15 8.47,-9.53 0,-0.14 0,-0.3 0,-0.47 0,-0.44 0,-0.96 0,-1.61 0,0 2.57,-4.82 3.64,-7.12 1.51,-3.28 11.66,-28.18 13.15,-30.92 2.26,-4.13 5.7,-9.05 4.68,-15.09 -0.21,-1.25 -1.27,-6.8 -2.49,-13.06 1.87,-0.11 3.82,-0.35 5.83,-0.85 12.64,-3.11 17.96,-13.72 22.12,-22.21 4.31,-8.78 -1.25,-12.48 -7.23,-11.11 -5.14,1.18 -18.05,4.89 -27.53,7.99 -0.46,0.15 -0.87,0.33 -1.29,0.5 -2.99,-2.36 -6.82,-3.56 -8.93,-3.79 0.14,-0.25 0.26,-0.5 0.41,-0.76 2.81,-4.6 8.11,-10.1 20.04,-13.96 7.73,-2.47 15.05,-4.74 21.74,-7.27 6.67,-2.55 12.75,-5.36 17.91,-9.18 3.43,-2.53 6.47,-5.56 8.77,-9.2 3.09,-4.85 4.73,-10.72 4.71,-17.24 0,-3.31 -0.39,-6.8 -1.17,-10.52zm-137.01 90.04c-1.86,-0.03 -3.69,-0.25 -5.45,-0.68 -6.58,-1.62 -10.5,-6.14 -13.95,-12.22 -1.05,-1.84 0.91,-4.88 3.47,-4.16 5.53,1.55 12.44,3.62 18.33,5.54 -0.54,2.31 -1.44,6.7 -2.41,11.52zm11.02 30.45c-3.07,0 -5.55,-2.45 -5.55,-5.46 0,-0.79 0.18,-1.55 0.49,-2.23l-2.42 -3.23 7.48 0c3.05,0 5.54,2.45 5.54,5.46 0,3.01 -2.48,5.46 -5.54,5.46zm32.27 47.37l-6.46 0c-5.57,0 -10.08,-4.44 -10.08,-9.93 0,-5.48 4.51,-9.93 10.08,-9.93l6.46 0c5.57,0 10.08,4.44 10.08,9.93 0,5.48 -4.51,9.93 -10.08,9.93zm52.75 -94.88c2.56,-0.72 4.52,2.32 3.47,4.16 -3.45,6.08 -7.37,10.6 -13.95,12.22 -1.77,0.44 -3.6,0.66 -5.45,0.68 -0.97,-4.83 -1.87,-9.22 -2.41,-11.52 5.89,-1.92 12.8,-3.99 18.34,-5.54zm-26.94 36.6l7.47 0 -2.42 3.23c0.31,0.68 0.49,1.43 0.49,2.23 0,3.01 -2.48,5.46 -5.55,5.46 -3.06,0 -5.54,-2.45 -5.54,-5.46 0,-3.01 2.49,-5.46 5.54,-5.46z"/>
   </g>
  </g>
 </g>
</svg>
